<svg width="37" height="37" viewBox="0 0 37 37" fill="none" xmlns="http://www.w3.org/2000/svg">
<rect x="0.375" y="0.980957" width="35.9326" height="35.9326" rx="8" fill="#FFF2D0"/>
<path d="M22.9812 15.4175V18.5295H18.2867V15.4175C18.279 15.0877 18.4505 14.7795 18.735 14.6121C19.0193 14.445 19.3723 14.445 19.6567 14.6121C19.9412 14.7795 20.1127 15.0877 20.1048 15.4175V15.9418C20.1048 16.1713 20.291 16.3571 20.5203 16.3571C20.7499 16.3571 20.9358 16.1713 20.9358 15.9418V15.4175C20.9466 14.7889 20.6173 14.2031 20.0746 13.8858C19.5319 13.5682 18.86 13.5682 18.317 13.8858C17.7743 14.2031 17.445 14.7889 17.4558 15.4175V23.7431C17.4558 23.9726 17.6417 24.1585 17.8713 24.1585C18.1007 24.1585 18.2867 23.9726 18.2867 23.7431V21.9454H22.9812V23.7431C22.9812 23.9726 23.1674 24.1585 23.3967 24.1585C23.6261 24.1585 23.8121 23.9726 23.8121 23.7431V15.4175C23.8037 15.0873 23.975 14.7783 24.2599 14.6107C24.5446 14.443 24.8978 14.443 25.1825 14.6107C25.4674 14.7783 25.6387 15.0873 25.6302 15.4175V15.9418C25.6302 16.1713 25.8163 16.3571 26.0457 16.3571C26.2752 16.3571 26.4612 16.1713 26.4612 15.9418V15.4175C26.4729 14.7883 26.1438 14.2017 25.6007 13.8837C25.0576 13.5656 24.385 13.5656 23.8417 13.8837C23.2987 14.2017 22.9695 14.7883 22.9812 15.4175ZM18.287 21.1145V19.3604H22.9814V21.1145H18.287Z" fill="#B27E02"/>
<path d="M24.6328 25.5898C24.303 25.5898 24.1588 25.4737 23.9409 25.2981C23.6778 25.0862 23.3505 24.8226 22.7278 24.8226C22.1049 24.8226 21.7776 25.0862 21.5148 25.2981C21.2967 25.4737 21.1527 25.5898 20.823 25.5898C20.4934 25.5898 20.3491 25.4737 20.1312 25.2981C19.8681 25.0862 19.5408 24.8226 18.9182 24.8226C18.2953 24.8226 17.9681 25.0862 17.7052 25.2981C17.4872 25.4737 17.3432 25.5897 17.0136 25.5897C16.6837 25.5897 16.5399 25.4737 16.3218 25.2981C16.0585 25.0862 15.7314 24.8226 15.1088 24.8226C14.8794 24.8226 14.6935 25.0086 14.6935 25.238C14.6935 25.4673 14.8794 25.6535 15.1088 25.6535C15.4385 25.6535 15.5825 25.7696 15.8006 25.9452C16.0636 26.1571 16.3907 26.4205 17.0136 26.4205C17.6362 26.4205 17.9635 26.1569 18.2264 25.9452C18.4445 25.7696 18.5887 25.6535 18.9182 25.6535C19.2478 25.6535 19.3919 25.7696 19.6099 25.9452C19.873 26.1571 20.2002 26.4205 20.823 26.4205C21.4457 26.4205 21.773 26.1569 22.036 25.9452C22.2541 25.7696 22.398 25.6535 22.7278 25.6535C23.0573 25.6535 23.2016 25.7696 23.4195 25.9452C23.6827 26.1571 24.0099 26.4205 24.6328 26.4205C25.2556 26.4205 25.5828 26.1569 25.8457 25.9452C26.0639 25.7696 26.208 25.6535 26.5377 25.6535C26.7671 25.6535 26.9532 25.4673 26.9532 25.238C26.9532 25.0086 26.7671 24.8226 26.5377 24.8226C25.915 24.8226 25.5876 25.0862 25.3246 25.2981C25.1064 25.4737 24.9624 25.5898 24.6328 25.5898Z" fill="#B27E02"/>
<path d="M26.5377 27.2021C25.9151 27.2021 25.5877 27.4657 25.3247 27.6776C25.1067 27.8532 24.9625 27.9692 24.633 27.9692C24.3031 27.9692 24.1591 27.8532 23.9409 27.6776C23.6778 27.4657 23.3505 27.2021 22.7279 27.2021C22.1052 27.2021 21.7778 27.4657 21.5149 27.6776C21.297 27.8532 21.1528 27.9692 20.823 27.9692C20.4934 27.9692 20.3494 27.8532 20.1314 27.6776C19.8681 27.4657 19.541 27.2021 18.9184 27.2021C18.2956 27.2021 17.9684 27.4657 17.7054 27.6776C17.4874 27.8532 17.3433 27.9692 17.0136 27.9692C16.6839 27.9692 16.5399 27.8532 16.3218 27.6776C16.0588 27.4657 15.7317 27.2021 15.1088 27.2021C14.8795 27.2021 14.6935 27.3882 14.6935 27.6175C14.6935 27.8468 14.8795 28.033 15.1088 28.033C15.4387 28.033 15.5825 28.1491 15.8006 28.3247C16.0639 28.5366 16.3909 28.8 17.0136 28.8C17.6362 28.8 17.9636 28.5365 18.2267 28.3247C18.4447 28.1491 18.5888 28.033 18.9184 28.033C19.2479 28.033 19.3921 28.1491 19.61 28.3247C19.8731 28.5366 20.2004 28.8 20.823 28.8C21.4459 28.8 21.7731 28.5365 22.0363 28.3247C22.2542 28.1491 22.3983 28.033 22.7279 28.033C23.0573 28.033 23.2016 28.1491 23.4198 28.3247C23.6828 28.5366 24.0101 28.8002 24.633 28.8002C25.2556 28.8002 25.583 28.5365 25.8459 28.3247C26.064 28.1491 26.2082 28.033 26.5377 28.033C26.7674 28.033 26.9532 27.8468 26.9532 27.6175C26.9532 27.3882 26.7674 27.2021 26.5377 27.2021Z" fill="#B27E02"/>
<path d="M14.8221 12.9672C14.8221 11.9219 13.9748 11.0746 12.9295 11.0746C11.8844 11.0746 11.037 11.9219 11.037 12.9672C11.037 14.0125 11.8844 14.8597 12.9295 14.8597C13.9745 14.8586 14.8211 14.012 14.8221 12.9672ZM12.9295 14.0289C12.3433 14.0289 11.8678 13.5536 11.8678 12.9672C11.8678 12.3807 12.3433 11.9054 12.9295 11.9054C13.516 11.9054 13.9913 12.3807 13.9913 12.9672C13.9907 13.5531 13.5157 14.0281 12.9295 14.0289Z" fill="#B27E02"/>
<path d="M13.3405 10.1284V9.52829C13.3405 9.29881 13.1543 9.11279 12.925 9.11279C12.6955 9.11279 12.5096 9.29881 12.5096 9.52829V10.1284C12.5096 10.3577 12.6955 10.5437 12.925 10.5437C13.1543 10.5437 13.3405 10.3577 13.3405 10.1284Z" fill="#B27E02"/>
<path d="M12.5096 15.8061V16.4062C12.5096 16.6355 12.6955 16.8215 12.925 16.8215C13.1543 16.8215 13.3405 16.6355 13.3405 16.4062V15.8061C13.3405 15.5768 13.1543 15.3906 12.925 15.3906C12.6955 15.3906 12.5096 15.5768 12.5096 15.8061Z" fill="#B27E02"/>
<path d="M15.3254 12.9903C15.3254 13.2197 15.5113 13.4057 15.7408 13.4057H16.341C16.5703 13.4057 16.7564 13.2197 16.7564 12.9903C16.7564 12.7608 16.5703 12.5748 16.341 12.5748H15.7408C15.5113 12.5748 15.3254 12.7608 15.3254 12.9903Z" fill="#B27E02"/>
<path d="M9.46296 13.4057H10.063C10.2925 13.4057 10.4785 13.2197 10.4785 12.9903C10.4785 12.7608 10.2925 12.5748 10.063 12.5748H9.46296C9.23348 12.5748 9.04761 12.7608 9.04761 12.9903C9.04761 13.2197 9.23348 13.4057 9.46296 13.4057Z" fill="#B27E02"/>
<path d="M15.0447 15.6926C15.2073 15.8526 15.4684 15.8515 15.6297 15.6903C15.7912 15.529 15.7921 15.2679 15.6322 15.1052L15.2079 14.6809C15.0453 14.5208 14.7842 14.5219 14.6227 14.6832C14.4614 14.8444 14.4602 15.1057 14.6204 15.2684L15.0447 15.6926Z" fill="#B27E02"/>
<path d="M10.6054 11.2535C10.7101 11.3598 10.8638 11.402 11.0081 11.3638C11.1524 11.3256 11.265 11.2129 11.3033 11.0686C11.3416 10.9244 11.2992 10.7707 11.1929 10.666L10.7686 10.2417C10.6062 10.0818 10.3449 10.0828 10.1834 10.244C10.0223 10.4055 10.0213 10.6666 10.1811 10.8292L10.6054 11.2535Z" fill="#B27E02"/>
<path d="M10.6055 14.6809L10.1811 15.1052C10.0749 15.2098 10.0328 15.3636 10.071 15.5079C10.1092 15.652 10.2219 15.7647 10.3661 15.8028C10.5104 15.8411 10.6641 15.799 10.7686 15.6926L11.193 15.2684C11.353 15.1057 11.352 14.8444 11.1906 14.6832C11.0293 14.5219 10.7681 14.5208 10.6055 14.6809Z" fill="#B27E02"/>
<path d="M15.0446 10.2417L14.6203 10.666C14.5139 10.7707 14.4718 10.9244 14.5101 11.0686C14.5484 11.2129 14.6609 11.3256 14.8052 11.3638C14.9494 11.402 15.1033 11.3598 15.2078 11.2535L15.6321 10.8292C15.792 10.6666 15.7911 10.4055 15.6297 10.244C15.4684 10.0828 15.2072 10.0818 15.0446 10.2417Z" fill="#B27E02"/>
</svg>
