<svg width="37" height="37" viewBox="0 0 37 37" fill="none" xmlns="http://www.w3.org/2000/svg">
<rect x="0.375" y="0.980469" width="35.9326" height="35.9326" rx="8" fill="#FFF2D0"/>
<path d="M27.3245 23.2048V12.3622C27.3245 11.2842 26.4441 10.4847 25.3751 10.5745H25.3212C23.4348 10.7362 20.5691 11.6974 18.9701 12.7035L18.8174 12.8023C18.5569 12.964 18.1257 12.964 17.8652 12.8023L17.6406 12.6676C16.0416 11.6705 13.185 10.7182 11.2985 10.5655C10.2295 10.4757 9.35815 11.2842 9.35815 12.3532V23.2048C9.35815 24.0672 10.0588 24.8757 10.9212 24.9835L11.1817 25.0194C13.1311 25.2799 16.1404 26.2681 17.8652 27.2113L17.9011 27.2293C18.1437 27.364 18.53 27.364 18.7635 27.2293C20.4883 26.2771 23.5066 25.2799 25.465 25.0194L25.7614 24.9835C26.6238 24.8757 27.3245 24.0672 27.3245 23.2048Z" stroke="#B27E02" stroke-width="1.5" stroke-linecap="round" stroke-linejoin="round"/>
<path d="M18.3413 13.0988V26.5735" stroke="#B27E02" stroke-width="1.5" stroke-linecap="round" stroke-linejoin="round"/>
<path d="M14.5234 15.7937H12.5022" stroke="#B27E02" stroke-width="1.5" stroke-linecap="round" stroke-linejoin="round"/>
<path d="M15.1971 18.4886H12.5022" stroke="#B27E02" stroke-width="1.5" stroke-linecap="round" stroke-linejoin="round"/>
</svg>
