<svg width="17" height="24" viewBox="0 0 17 24" fill="none" xmlns="http://www.w3.org/2000/svg">
<path opacity="0.979" fill-rule="evenodd" clip-rule="evenodd" d="M0.0785008 0.287598C5.4333 0.287598 10.7882 0.287598 16.143 0.287598C16.143 1.26741 16.143 2.24726 16.143 3.22705C14.4561 3.20429 12.77 3.22705 11.0844 3.29541C11.7325 4.12269 12.1427 5.05696 12.3148 6.09814C13.5909 6.09814 14.8669 6.09814 16.143 6.09814C16.143 7.10077 16.143 8.10333 16.143 9.10596C14.8669 9.10596 13.5909 9.10596 12.3148 9.10596C11.4909 12.4475 9.37175 14.3729 5.95741 14.8823C5.20545 14.9051 4.4535 14.9279 3.70155 14.9507C6.5954 17.8445 9.48933 20.7385 12.3832 23.6323C10.9704 23.6779 9.55769 23.6779 8.14491 23.6323C5.46747 20.9549 2.79011 18.2775 0.112681 15.6001C0.0785008 14.3926 0.0670848 13.185 0.0785008 11.977C1.78762 11.9885 3.49661 11.977 5.20545 11.9429C7.1109 11.8146 8.45533 10.8804 9.23866 9.14014C6.18538 9.10596 3.13198 9.09454 0.0785008 9.10596C0.0785008 8.10333 0.0785008 7.10077 0.0785008 6.09814C3.13198 6.10956 6.18538 6.09814 9.23866 6.06396C8.45478 4.32306 7.11036 3.38879 5.20545 3.26123C3.49661 3.22705 1.78762 3.21563 0.0785008 3.22705C0.0785008 2.24726 0.0785008 1.26741 0.0785008 0.287598Z" fill="#A77B01"/>
</svg>
