<svg width="37" height="37" viewBox="0 0 37 37" fill="none" xmlns="http://www.w3.org/2000/svg">
<rect x="0.375" y="0.980469" width="35.9326" height="35.9326" rx="8" fill="#FFF2D0"/>
<path d="M9.22307 9.97599C13.0281 10.5827 16.9074 10.8128 27.6421 9.85419C27.8092 9.83171 27.9523 9.83896 28.0984 9.9315C28.166 10.0404 28.1804 10.1241 28.1856 10.2519C28.0966 10.429 27.9692 10.5729 27.8395 10.721C27.795 10.7723 27.7506 10.8236 27.7062 10.8749C27.6836 10.9009 27.6609 10.9269 27.6376 10.9537C27.5334 11.0738 27.4301 11.1948 27.3268 11.3158C27.1335 11.5415 26.9389 11.7663 26.7441 11.9908C26.595 12.1626 26.4467 12.335 26.2988 12.5078C26.1716 12.6564 26.0442 12.805 25.9164 12.9532C25.8936 12.9796 25.8709 13.0061 25.8474 13.0333C25.8017 13.0859 25.7557 13.1383 25.7094 13.1904C25.6086 13.304 25.5173 13.4135 25.4327 13.5401C25.3529 13.6537 25.3529 13.6537 25.1504 13.8203C24.8797 13.8203 24.609 13.8203 24.3301 13.8203C24.3301 14.7678 24.3301 15.7152 24.3301 16.6914C25.0516 16.6849 25.0516 16.6849 25.7731 16.6766C25.8636 16.6761 25.954 16.6757 26.0444 16.6754C26.0914 16.6745 26.1384 16.6737 26.1868 16.6728C26.2317 16.6728 26.2767 16.6728 26.323 16.6728C26.362 16.6724 26.401 16.672 26.4411 16.6717C26.5771 16.6975 26.6253 16.7471 26.709 16.8554C26.7511 17.1478 26.6496 17.374 26.5368 17.6405C26.519 17.6834 26.5013 17.7262 26.4831 17.7703C26.4456 17.8605 26.4078 17.9505 26.3698 18.0405C26.3117 18.178 26.255 18.316 26.1983 18.4541C26.1617 18.5418 26.1249 18.6295 26.0882 18.7172C26.0713 18.7584 26.0544 18.7995 26.037 18.842C26.0206 18.8803 26.0042 18.9187 25.9873 18.9582C25.9731 18.9918 25.959 19.0254 25.9445 19.0601C25.8887 19.1523 25.8887 19.1523 25.6836 19.3164C25.2369 19.3164 24.7903 19.3164 24.3301 19.3164C24.3301 21.9693 24.3301 24.6222 24.3301 27.3554C25.6295 27.3554 26.9288 27.3554 28.2676 27.3554C28.5137 27.4785 28.5137 27.4785 28.5547 27.5605C28.5735 27.8137 28.5735 27.8137 28.5009 27.945C28.353 28.0874 28.1657 28.0585 27.9738 28.0581C27.9391 28.0582 27.9043 28.0583 27.8686 28.0584C27.7513 28.0586 27.634 28.0585 27.5166 28.0585C27.4321 28.0586 27.3475 28.0587 27.263 28.0588C27.0298 28.0592 26.7967 28.0592 26.5635 28.0593C26.3124 28.0594 26.0613 28.0597 25.8101 28.0599C25.232 28.0605 24.6539 28.0608 24.0758 28.0609C23.7902 28.061 23.5046 28.0612 23.2191 28.0613C22.2419 28.0619 21.2647 28.0623 20.2875 28.0625C20.2261 28.0625 20.1648 28.0625 20.1034 28.0625C20.0419 28.0625 19.9804 28.0625 19.9189 28.0625C19.7955 28.0625 19.6721 28.0625 19.5487 28.0626C19.5181 28.0626 19.4875 28.0626 19.456 28.0626C18.4636 28.0627 17.4712 28.0634 16.4788 28.0643C15.43 28.0653 14.3812 28.0659 13.3324 28.066C13.2173 28.066 13.1022 28.066 12.9872 28.066C12.9588 28.066 12.9305 28.066 12.9013 28.066C12.4448 28.066 11.9883 28.0665 11.5318 28.0671C11.0732 28.0677 10.6147 28.0678 10.1561 28.0675C9.90751 28.0673 9.65895 28.0674 9.41038 28.0679C9.18304 28.0685 8.9557 28.0684 8.72836 28.0679C8.64592 28.0678 8.56347 28.068 8.48103 28.0683C8.36933 28.0688 8.25766 28.0685 8.14596 28.068C8.11363 28.0683 8.0813 28.0686 8.048 28.0689C7.86302 28.0671 7.74246 28.0451 7.59571 27.9297C7.53231 27.8029 7.54266 27.7002 7.5547 27.5605C7.6457 27.4413 7.69905 27.403 7.84181 27.3554C7.89959 27.3518 7.95753 27.3504 8.01543 27.3505C8.05073 27.3505 8.08602 27.3504 8.12239 27.3503C8.18052 27.3506 8.18052 27.3506 8.23982 27.3508C8.30204 27.3508 8.30204 27.3508 8.36552 27.3508C8.50001 27.3508 8.6345 27.3511 8.76898 27.3514C8.85193 27.3515 8.93488 27.3515 9.01783 27.3516C9.32565 27.3518 9.63347 27.3524 9.94129 27.3529C10.629 27.3537 11.3168 27.3546 12.0254 27.3554C12.0254 24.7026 12.0254 22.0497 12.0254 19.3164C11.4975 19.3164 10.9697 19.3164 10.4258 19.3164C10.1951 19.1318 10.1951 19.1318 10.1354 18.9839C10.1218 18.9512 10.1083 18.9184 10.0943 18.8847C10.0805 18.8497 10.0667 18.8146 10.0525 18.7785C10.0376 18.7421 10.0227 18.7057 10.0073 18.6682C9.95999 18.5521 9.91346 18.4356 9.86695 18.3192C9.83539 18.2413 9.80378 18.1635 9.7721 18.0857C9.71379 17.9423 9.65582 17.7987 9.59817 17.655C9.55146 17.5388 9.50332 17.4234 9.4532 17.3086C9.3806 17.1367 9.3792 17.0402 9.4004 16.8554C9.48659 16.7403 9.53462 16.6966 9.67762 16.6717C9.72097 16.672 9.76433 16.6724 9.80899 16.6728C9.88391 16.6728 9.88391 16.6728 9.96034 16.6728C10.0126 16.6737 10.0649 16.6745 10.1188 16.6754C10.1911 16.6756 10.1911 16.6756 10.2649 16.6759C10.445 16.6767 10.6251 16.679 10.8052 16.6811C11.2079 16.6845 11.6105 16.6879 12.0254 16.6914C12.0254 15.7439 12.0254 14.7965 12.0254 13.8203C11.6735 13.8203 11.3216 13.8203 10.959 13.8203C10.6396 13.5008 10.6396 13.5008 10.495 13.3178C10.3673 13.1591 10.2358 13.0063 10.0977 12.8564C9.92894 12.6731 9.77074 12.4836 9.61429 12.2897C9.52524 12.1818 9.43311 12.078 9.33888 11.9746C9.21191 11.8353 9.09067 11.6931 8.9723 11.5465C8.84614 11.3905 8.71595 11.2404 8.58009 11.0928C7.92127 10.3753 7.92127 10.3753 7.9264 10.1289C7.96485 10.0058 7.96485 10.0058 8.04176 9.90586C8.36544 9.74402 8.87394 9.92031 9.22307 9.97599ZM9.15431 10.6621C9.2883 10.8445 9.42293 11.0216 9.57728 11.1876C9.70694 11.3294 9.83094 11.4738 9.95155 11.6234C10.0777 11.7794 10.2079 11.9295 10.3438 12.0771C10.5086 12.2562 10.6641 12.4405 10.8156 12.631C10.8494 12.6715 10.8832 12.7121 10.918 12.7539C10.9415 12.7882 10.9651 12.8225 10.9894 12.8578C11.1198 13.0305 11.215 13.1465 11.4302 13.1989C11.5936 13.2091 11.7544 13.2088 11.9177 13.2025C12.0283 13.2003 12.1388 13.1993 12.2494 13.1985C12.2979 13.1969 12.3465 13.1954 12.3965 13.1938C12.5176 13.2051 12.5176 13.2051 12.5933 13.2619C12.6864 13.3922 12.6869 13.4792 12.6873 13.638C12.6876 13.6868 12.6878 13.7355 12.688 13.7857C12.6881 13.8397 12.6881 13.8938 12.6881 13.9494C12.6883 14.007 12.6885 14.0646 12.6888 14.1222C12.6893 14.281 12.6896 14.4398 12.6899 14.5986C12.6902 14.7697 12.6908 14.9407 12.6913 15.1118C12.6922 15.4083 12.6929 15.7049 12.6936 16.0014C12.6945 16.4302 12.6957 16.8589 12.6969 17.2877C12.6988 17.9833 12.7006 18.6788 12.7023 19.3744C12.7039 20.0502 12.7056 20.726 12.7074 21.4019C12.7075 21.4435 12.7076 21.4851 12.7077 21.528C12.7083 21.7369 12.7089 21.9457 12.7094 22.1546C12.7141 23.8882 12.7185 25.6218 12.7227 27.3554C13.2505 27.3554 13.7784 27.3554 14.3223 27.3554C14.3231 27.1004 14.3239 26.8453 14.3247 26.5824C14.3275 25.7413 14.3307 24.9002 14.3341 24.059C14.3361 23.5488 14.338 23.0387 14.3396 22.5285C14.3409 22.0839 14.3426 21.6394 14.3445 21.1948C14.3456 20.9593 14.3465 20.7238 14.347 20.4883C14.3475 20.2668 14.3485 20.0453 14.3496 19.8238C14.35 19.7424 14.3503 19.661 14.3503 19.5795C14.3505 19.4686 14.3511 19.3577 14.3519 19.2467C14.3518 19.2143 14.3517 19.1819 14.3516 19.1485C14.3545 18.8687 14.3545 18.8687 14.4453 18.7422C14.5651 18.6823 14.6854 18.6951 14.8167 18.6951C14.8619 18.6949 14.8619 18.6949 14.908 18.6947C15.0095 18.6942 15.1109 18.694 15.2124 18.6939C15.285 18.6936 15.3575 18.6934 15.4301 18.6931C15.6275 18.6924 15.825 18.6919 16.0224 18.6916C16.1457 18.6914 16.2689 18.6911 16.3922 18.6909C16.7774 18.6901 17.1627 18.6895 17.548 18.6892C17.9934 18.6888 18.4387 18.6877 18.8841 18.686C19.228 18.6848 19.5718 18.6842 19.9157 18.684C20.1213 18.6839 20.3268 18.6836 20.5324 18.6825C20.7257 18.6816 20.9189 18.6814 21.1122 18.6818C21.1833 18.6819 21.2543 18.6816 21.3254 18.681C21.4221 18.6803 21.5189 18.6806 21.6156 18.6811C21.644 18.6807 21.6723 18.6802 21.7014 18.6798C21.8209 18.6814 21.8938 18.6883 21.9891 18.7631C22.0525 18.9099 22.0505 19.0501 22.0496 19.2073C22.0498 19.2421 22.0501 19.2769 22.0504 19.3127C22.0512 19.4296 22.051 19.5464 22.0509 19.6632C22.0513 19.7469 22.0517 19.8306 22.0522 19.9142C22.0533 20.1416 22.0537 20.3689 22.054 20.5963C22.0544 20.8338 22.0554 21.0713 22.0564 21.3088C22.0582 21.7587 22.0594 22.2086 22.0603 22.6584C22.0615 23.1706 22.0633 23.6827 22.0651 24.1948C22.0689 25.2483 22.0718 26.3019 22.0742 27.3554C22.6021 27.3554 23.13 27.3554 23.6738 27.3554C23.674 27.18 23.6741 27.0045 23.6743 26.8237C23.6757 25.2161 23.678 23.6084 23.6811 22.0007C23.6815 21.7902 23.6819 21.5796 23.6823 21.3691C23.6825 21.3062 23.6825 21.3062 23.6826 21.2421C23.6839 20.5626 23.6846 19.8832 23.685 19.2038C23.6856 18.507 23.6867 17.8102 23.6884 17.1135C23.6894 16.6833 23.69 16.2531 23.6899 15.8229C23.6899 15.5282 23.6905 15.2335 23.6916 14.9388C23.6922 14.7686 23.6925 14.5984 23.6921 14.4281C23.6918 14.2725 23.6922 14.1168 23.6932 13.9611C23.6934 13.9047 23.6934 13.8482 23.6931 13.7917C23.6926 13.7152 23.6933 13.6388 23.694 13.5623C23.6941 13.5197 23.6941 13.4772 23.6942 13.4333C23.7149 13.3281 23.7149 13.3281 23.7921 13.2526C23.8995 13.1938 23.9638 13.1944 24.0854 13.2014C24.5535 13.235 24.5535 13.235 24.9718 13.0681C25.0902 12.9483 25.1807 12.812 25.2734 12.6719C25.335 12.5952 25.3974 12.5191 25.4606 12.4437C25.4902 12.4069 25.5199 12.37 25.5505 12.332C25.6462 12.2163 25.7459 12.1056 25.8477 11.9951C26.0153 11.813 26.1722 11.6248 26.3274 11.4321C26.46 11.2724 26.6011 11.1212 26.7433 10.97C26.828 10.8718 26.89 10.7738 26.9551 10.6621C26.9194 10.6669 26.9194 10.6669 26.883 10.6719C25.2625 10.8919 23.6493 11.0876 22.0178 11.203C21.9687 11.2065 21.9195 11.2099 21.8689 11.2135C21.541 11.2365 21.2129 11.2578 20.8848 11.2773C20.8275 11.2808 20.8275 11.2808 20.7691 11.2843C19.9557 11.3318 19.1406 11.326 18.3261 11.3259C18.1636 11.3259 18.0011 11.3262 17.8385 11.3268C16.3707 11.3318 14.9084 11.2874 13.4456 11.162C13.3843 11.1568 13.3843 11.1568 13.3217 11.1516C11.9269 11.0346 10.5393 10.8638 9.15431 10.6621ZM10.2207 17.3476C10.2859 17.5109 10.351 17.6742 10.4181 17.8424C10.4384 17.8933 10.4587 17.9442 10.4796 17.9967C10.5041 18.0581 10.5041 18.0581 10.5291 18.1207C10.5457 18.1621 10.5622 18.2036 10.5792 18.2463C10.6357 18.385 10.6949 18.5225 10.7539 18.6601C11.1735 18.6601 11.5931 18.6601 12.0254 18.6601C12.0254 18.227 12.0254 17.7939 12.0254 17.3476C11.4299 17.3476 10.8343 17.3476 10.2207 17.3476ZM24.3711 17.3476C24.3711 17.7808 24.3711 18.2139 24.3711 18.6601C24.6959 18.6601 25.0208 18.6601 25.3555 18.6601C25.4315 18.4798 25.5074 18.2995 25.5833 18.1191C25.6091 18.0577 25.635 17.9964 25.6609 17.935C25.698 17.8469 25.735 17.7589 25.772 17.6708C25.7837 17.6432 25.7954 17.6156 25.8074 17.5872C25.8643 17.4712 25.8643 17.4712 25.8887 17.3476C25.3879 17.3476 24.8871 17.3476 24.3711 17.3476ZM15.0195 19.3164C15.0195 21.9693 15.0195 24.6222 15.0195 27.3554C17.1175 27.3554 19.2154 27.3554 21.377 27.3554C21.377 24.7026 21.377 22.0497 21.377 19.3164C19.279 19.3164 17.1811 19.3164 15.0195 19.3164Z" fill="#B27E02"/>
<path d="M19.3136 13.5266C19.3461 13.5264 19.3787 13.5262 19.4122 13.526C19.5202 13.5254 19.6281 13.5251 19.7361 13.5249C19.811 13.5247 19.8859 13.5244 19.9608 13.5242C20.1179 13.5238 20.2751 13.5235 20.4322 13.5234C20.6337 13.5231 20.8351 13.5222 21.0366 13.521C21.1914 13.5202 21.3461 13.52 21.5009 13.5199C21.5751 13.5198 21.6494 13.5195 21.7237 13.519C21.8276 13.5183 21.9314 13.5183 22.0353 13.5186C22.0814 13.518 22.0814 13.518 22.1284 13.5175C22.2569 13.5185 22.3476 13.5256 22.4612 13.588C22.585 13.7196 22.572 13.8594 22.5731 14.031C22.5735 14.0829 22.5739 14.1348 22.5743 14.1882C22.5745 14.2449 22.5746 14.3016 22.5748 14.3583C22.575 14.4165 22.5753 14.4747 22.5755 14.5329C22.5759 14.6549 22.5762 14.7769 22.5763 14.8989C22.5765 15.0549 22.5775 15.211 22.5787 15.3671C22.5795 15.4873 22.5797 15.6075 22.5797 15.7277C22.5799 15.7852 22.5802 15.8427 22.5807 15.9003C22.5814 15.9808 22.5813 16.0614 22.5811 16.142C22.5813 16.2107 22.5813 16.2107 22.5815 16.2808C22.5645 16.4202 22.5265 16.4973 22.4434 16.6094C22.3172 16.6725 22.1845 16.6568 22.0459 16.657C22.0134 16.6572 21.9808 16.6574 21.9473 16.6576C21.8393 16.6582 21.7314 16.6585 21.6234 16.6587C21.5485 16.659 21.4736 16.6592 21.3987 16.6594C21.2416 16.6599 21.0844 16.6601 20.9273 16.6603C20.7258 16.6605 20.5243 16.6615 20.3229 16.6626C20.1681 16.6634 20.0134 16.6636 19.8586 16.6637C19.7844 16.6638 19.7101 16.6641 19.6358 16.6647C19.5319 16.6654 19.4281 16.6653 19.3242 16.665C19.2934 16.6654 19.2627 16.6658 19.231 16.6662C19.1026 16.6651 19.0119 16.658 18.8983 16.5957C18.7745 16.464 18.7875 16.3242 18.7864 16.1526C18.786 16.1008 18.7856 16.0489 18.7852 15.9954C18.785 15.9387 18.7848 15.882 18.7847 15.8253C18.7845 15.7671 18.7842 15.7089 18.784 15.6507C18.7836 15.5287 18.7833 15.4068 18.7832 15.2848C18.7829 15.1287 18.782 14.9726 18.7808 14.8166C18.78 14.6964 18.7798 14.5762 18.7798 14.456C18.7796 14.3984 18.7793 14.3409 18.7788 14.2834C18.7781 14.2028 18.7782 14.1222 18.7784 14.0416C18.7783 13.9958 18.7781 13.95 18.778 13.9028C18.795 13.7634 18.833 13.6864 18.9161 13.5742C19.0423 13.5111 19.175 13.5268 19.3136 13.5266ZM19.4903 14.1895C19.4903 14.785 19.4903 15.3806 19.4903 15.9942C20.2753 15.9942 21.0604 15.9942 21.8692 15.9942C21.8692 15.3986 21.8692 14.8031 21.8692 14.1895C21.0842 14.1895 20.2991 14.1895 19.4903 14.1895Z" fill="#B27E02"/>
<path d="M13.8578 13.5253C13.9066 13.5248 13.9066 13.5248 13.9563 13.5242C14.064 13.5232 14.1718 13.5225 14.2795 13.522C14.3163 13.5217 14.3531 13.5215 14.391 13.5213C14.5856 13.5202 14.7803 13.5194 14.9749 13.5188C15.176 13.5181 15.3771 13.5163 15.5782 13.5142C15.7327 13.5128 15.8873 13.5124 16.0419 13.5121C16.116 13.5118 16.1901 13.5112 16.2643 13.5102C16.3681 13.5089 16.4718 13.5089 16.5756 13.5092C16.6062 13.5086 16.6368 13.5079 16.6683 13.5072C16.8233 13.5091 16.9009 13.5293 17.0279 13.6204C17.1279 13.7616 17.1373 13.8349 17.1379 14.0068C17.1386 14.0603 17.1392 14.1138 17.1399 14.169C17.1395 14.227 17.1391 14.2851 17.1386 14.3432C17.1388 14.4031 17.139 14.463 17.1392 14.523C17.1395 14.6483 17.1391 14.7737 17.1381 14.899C17.137 15.0594 17.1376 15.2198 17.1389 15.3802C17.1396 15.5039 17.1394 15.6275 17.1388 15.7511C17.1387 15.8103 17.1389 15.8694 17.1393 15.9285C17.1399 16.0113 17.1389 16.094 17.1379 16.1768C17.1377 16.2473 17.1377 16.2473 17.1374 16.3192C17.1021 16.4901 17.0474 16.5489 16.9063 16.6504C16.7883 16.6705 16.6946 16.6781 16.5769 16.6762C16.5443 16.6765 16.5118 16.6768 16.4782 16.6771C16.3709 16.6778 16.2636 16.677 16.1563 16.6762C16.0816 16.6762 16.0069 16.6763 15.9322 16.6765C15.7757 16.6766 15.6193 16.676 15.4629 16.6748C15.2624 16.6734 15.0619 16.6737 14.8614 16.6745C14.7072 16.6749 14.553 16.6745 14.3988 16.6739C14.3248 16.6737 14.2509 16.6737 14.177 16.674C14.0737 16.6742 13.9704 16.6734 13.8671 16.6722C13.8213 16.6726 13.8213 16.6726 13.7746 16.6731C13.634 16.6705 13.5567 16.6607 13.4433 16.5747C13.334 16.4246 13.3325 16.3001 13.3313 16.1198C13.3309 16.0696 13.3306 16.0195 13.3301 15.9679C13.3299 15.9131 13.3298 15.8584 13.3296 15.8036C13.3294 15.7474 13.3291 15.6911 13.3289 15.6349C13.3285 15.5169 13.3282 15.399 13.3281 15.281C13.3279 15.1303 13.3269 14.9795 13.3257 14.8288C13.325 14.7126 13.3247 14.5964 13.3247 14.4801C13.3245 14.3977 13.3237 14.3152 13.323 14.2327C13.3231 14.1822 13.3232 14.1317 13.3233 14.0797C13.3232 14.0354 13.323 13.9912 13.3229 13.9456C13.3405 13.7991 13.3853 13.7002 13.461 13.5742C13.587 13.5112 13.7195 13.526 13.8578 13.5253ZM14.0352 14.1894C14.0352 14.785 14.0352 15.3805 14.0352 15.9941C14.8338 15.9941 15.6324 15.9941 16.4551 15.9941C16.4551 15.3986 16.4551 14.803 16.4551 14.1894C15.6566 14.1894 14.858 14.1894 14.0352 14.1894Z" fill="#B27E02"/>
</svg>
